<svg xmlns="http://www.w3.org/2000/svg" version="1.1" xmlns:xlink="http://www.w3.org/1999/xlink" xmlns:svgjs="http://svgjs.dev/svgjs" width="1000" height="879" viewBox="0 0 1000 879"><g transform="matrix(1,0,0,1,0.8728540945365353,0.3565276027539994)"><svg viewBox="0 0 281 247" data-background-color="#ffffff" preserveAspectRatio="xMidYMid meet" height="879" width="1000" xmlns="http://www.w3.org/2000/svg" xmlns:xlink="http://www.w3.org/1999/xlink"><g id="tight-bounds" transform="matrix(1,0,0,1,-0.24527200056476772,-0.09997365579206985)"><svg viewBox="0 0 281.49038545454545 247.2" height="247.2" width="281.49038545454545"><g><svg viewBox="0 0 281.49038545454545 247.2" height="247.2" width="281.49038545454545"><g><svg viewBox="0 0 281.49038545454545 247.2" height="247.2" width="281.49038545454545"><g id="textblocktransform"><svg viewBox="0 0 281.49038545454545 247.2" height="247.2" width="281.49038545454545" id="textblock"><g><svg viewBox="0 0 281.49038545454545 247.2" height="247.2" width="281.49038545454545"><path d="M280.831 53.02C279.508 27.36 275.736 20.227 275.736 20.227 264.157-6.202 249.706-0.506 236.724 3.292 213.804 3.446 190.976 9.091 168.109 12.119 120.111 12.581 71.703 4.986 23.943 23.717 19.457 29.464-4.654 24.846 0.798 56.304 2.227 69.39 7.441 83.913 7.282 95.922 7.997 98.026 8.989 93.202 9.413 96.23 10.895 104.39 13.317 100.541 15.302 105.365 12.536 118.246 14.521 128.971 16.413 140.21 13.079 143.135 8.804 141.749 6.885 151.449 6.687 158.479 5.615 157.145 4.437 156.837 3.577 156.632 1.843 157.402 2.135 159.608 3.127 167.152-1.134 171.514 1.539 178.904-0.3 186.91 2.809 193.838 2.386 202.511 2.333 204.255 2.624 205.744 3.087 206.154 5.139 208.361 2.148 212.672 2.465 217.342 23.507 249.262 46.334 227.195 67.892 241.872 73.489 231.608 69.281 245.516 71.518 243.36 73.264 240.846 74.535 251.263 76.507 245.362 76.811 243.668 76.348 239.665 77.433 240.435 78.002 240.846 78.505 240.743 78.584 238.382 78.703 234.841 77.658 237.048 77.38 235.201 80.384 225.861 79.643 248.081 82.462 247.158 82.329 244.438 81.509 240.538 83.19 241.051 84.857 237.151 84.91 233.918 86.392 242.693 86.445 244.592 86.71 245.926 87.133 246.85 91.765 237.305 96.37 250.237 101.227 245.926 104.204 241.205 107.063 248.492 110.08 246.696 111.139 245.259 112.211 242.693 113.23 247.004 125.709 247.928 139.008 244.079 150.839 247.158 182.454 241.41 216.239 249.518 249.574 241.923 257.435 238.998 265.6 234.841 273.262 231.506 273.262 231.506 279.468 222.371 279.468 181.316S280.792 145.393 280.99 112.703C281.189 80.013 282.115 78.679 280.792 53.02Z" opacity="1" fill="#915eff" data-fill-palette-color="tertiary"></path><g transform="matrix(1,0,0,1,55.76832,26.230666666666668)"><svg width="169.95374545454544" viewBox="1.6 -36.8 33.6 38.5" height="194.73866666666666" data-palette-color="#ffffff"><path d="M1.6-36.8L10.3-36.8 21.05-10.3 16.85-11.15 26.6-36.8 35.2-36.8 18.4 1.7 1.6-36.8Z" opacity="1" transform="matrix(1,0,0,1,0,0)" fill="#ffffff" class="wordmark-text-0" data-fill-palette-color="quaternary" id="text-0"></path></svg></g></svg></g></svg></g></svg></g><g></g></svg></g><defs></defs></svg><rect width="281.49038545454545" height="247.2" fill="none" stroke="none" visibility="hidden"></rect></g></svg></g></svg>